<svg width="1200" height="675" viewBox="0 0 1200 675" fill="none" xmlns="http://www.w3.org/2000/svg">
  <defs>
    <linearGradient id="grad1" x1="0%" y1="0%" x2="100%" y2="100%">
      <stop offset="0%" style="stop-color:#6BFF9E;stop-opacity:1" />
      <stop offset="100%" style="stop-color:#53FFB8;stop-opacity:1" />
    </linearGradient>
  </defs>
  <rect width="1200" height="675" fill="#1A1A1A"/>
  <g transform="translate(100,100)">
    <rect x="50" y="50" width="900" height="400" rx="20" fill="#2A2A2A"/>
    <rect x="100" y="100" width="200" height="100" rx="8" fill="url(#grad1)"/>
    <rect x="320" y="100" width="200" height="100" rx="8" fill="#3A3A3A"/>
    <rect x="540" y="100" width="200" height="100" rx="8" fill="#3A3A3A"/>
    <rect x="100" y="220" width="640" height="180" rx="8" fill="#3A3A3A"/>
    <path d="M120 360 L200 280 L280 320 L360 240 L440 300 L520 260 L600 340" stroke="url(#grad1)" stroke-width="3" fill="none"/>
    <circle cx="200" cy="280" r="4" fill="url(#grad1)"/>
    <circle cx="280" cy="320" r="4" fill="url(#grad1)"/>
    <circle cx="360" cy="240" r="4" fill="url(#grad1)"/>
    <circle cx="440" cy="300" r="4" fill="url(#grad1)"/>
    <circle cx="520" cy="260" r="4" fill="url(#grad1)"/>
    <circle cx="600" cy="340" r="4" fill="url(#grad1)"/>
  </g>
</svg>